PathFileType	4	(X/Y/Z)	/Users/itak/Documents/Research/Walk-IL/dataset/trc/00251_00009.trc
DataRate	CameraRate	NumFrames	NumMarkers	Units	OrigDataRate	OrigDataStartFrame	OrigNumFrames
100.000000	100.000000	4	54	mm	100.000000	58	468
Frame#	Time	RPSI			LPSI			L3			STRN			T10			C7			CLAV			RBAK			LBAK			LSHO			LUPA			LAEL			LAOL			LWTS			LWPS			LFRA			LHPS			LHTS			RSHO			RUPA			RAEL			RAOL			RWTS			RWPS			RFRA			RHTS			RHPS			RBHD			LFHD			RFHD			LBHD			LHIP			RHIP			RASI			LASI			LKNE			LTHI			LANK			LTIP			LTOE			LMT1			LMT5			LHEE			RKNE			RTHI			RANK			RTIP			RTOE			RMT1			RMT5			RHEE			LIFD			RIFD			*53			
		X1	Y1	Z1	X2	Y2	Z2	X3	Y3	Z3	X4	Y4	Z4	X5	Y5	Z5	X6	Y6	Z6	X7	Y7	Z7	X8	Y8	Z8	X9	Y9	Z9	X10	Y10	Z10	X11	Y11	Z11	X12	Y12	Z12	X13	Y13	Z13	X14	Y14	Z14	X15	Y15	Z15	X16	Y16	Z16	X17	Y17	Z17	X18	Y18	Z18	X19	Y19	Z19	X20	Y20	Z20	X21	Y21	Z21	X22	Y22	Z22	X23	Y23	Z23	X24	Y24	Z24	X25	Y25	Z25	X26	Y26	Z26	X27	Y27	Z27	X28	Y28	Z28	X29	Y29	Z29	X30	Y30	Z30	X31	Y31	Z31	X32	Y32	Z32	X33	Y33	Z33	X34	Y34	Z34	X35	Y35	Z35	X36	Y36	Z36	X37	Y37	Z37	X38	Y38	Z38	X39	Y39	Z39	X40	Y40	Z40	X41	Y41	Z41	X42	Y42	Z42	X43	Y43	Z43	X44	Y44	Z44	X45	Y45	Z45	X46	Y46	Z46	X47	Y47	Z47	X48	Y48	Z48	X49	Y49	Z49	X50	Y50	Z50	X51	Y51	Z51	X52	Y52	Z52	X53	Y53	Z53	X54	Y54	Z54	

59	0.58	-1614.85693359375	1058.2705078125	-299.143798828125	-1606.274658203125	1063.97119140625	-419.0249328613281	-1607.134643554688	1131.596923828125	-378.5765686035156	-1368.771728515625	1323.280151367188	-360.6734924316406	-1619.695922851562	1259.499389648438	-374.4356689453125	-1562.580932617188	1521.973022460938	-376.8036804199219	-1395.0458984375	1440.811157226562	-361.7929382324219	-1640.177612304688	1380.919799804688	-311.1223449707031	-1574.6748046875	1484.436401367188	-488.7569274902344	-1481.253662109375	1486.2490234375	-536.5247192382812	-1503.166748046875	1367.83056640625	-617.2750244140625	-1479.469604492188	1158.355102539062	-639.4020385742188	-1558.622314453125	1140.10205078125	-606.5966796875	-1380.204956054688	942.9857177734375	-541.418212890625	-1383.54736328125	917.4489135742188	-623.0192260742188	-1443.705810546875	1053.671264648438	-639.0596313476562	-1357.1796875	832.638671875	-605.8564453125	-1329.895751953125	846.950927734375	-543.730224609375	-1519.433837890625	1484.849853515625	-203.0193786621094	-1543.818359375	1420.339965820312	-137.3138122558594	-1561.529663085938	1138.913452148438	-97.15376281738281	-1589.306640625	1132.068603515625	-188.3088073730469	-1423.842407226562	922.952392578125	-133.63671875	-1479.496704101562	909.130615234375	-70.38044738769531	-1534.870361328125	1070.175170898438	-83.02010345458984	-1385.61767578125	802.6928100585938	-116.7415161132812	-1439.892944335938	801.8058471679688	-68.83137512207031	-1530.511352539062	1681.638793945312	-341.6875610351562	-1309.714111328125	1724.345581054688	-376.60595703125	-1337.766357421875	1722.82080078125	-281.0308532714844	-1449.842163085938	1689.106811523438	-456.2732238769531	-1499.95263671875	997.1259765625	-552.9476928710938	-1527.173706054688	1013.021057128906	-185.9131164550781	-1426.375244140625	1052.713623046875	-216.08837890625	-1400.744262695312	1034.350830078125	-496.5157775878906	-1480.319091796875	508.4128112792969	-508.3466491699219	-1477.393188476562	652.2949829101562	-540.2210693359375	-1569.139892578125	39.06112670898438	-499.5931396484375	-1532.959350585938	287.4094848632812	-515.9121704101562	-1355.981079101562	47.03877639770508	-439.0678405761719	-1425.10009765625	41.5241813659668	-397.2654418945312	-1440.449462890625	39.79000091552734	-514.8775024414062	-1631.4521484375	44.86106491088867	-449.3022155761719	-1508.71337890625	518.2371826171875	-226.7401580810547	-1478.1982421875	785.53564453125	-178.2504272460938	-1595.483276367188	41.33383941650391	-260.8625793457031	-1508.096069335938	402.6237487792969	-244.6725616455078	-1380.197021484375	47.97072219848633	-282.1821899414062	-1432.3837890625	42.02320098876953	-331.6088562011719	-1486.827758789062	43.14381408691406	-224.9654846191406	-1652.070190429688	37.07424163818359	-325.3271484375	-1345.174560546875	751.6414184570312	-526.2640991210938	-1421.16455078125	746.8925170898438	-151.4509735107422	nan	nan	nan	
60	0.59	-1614.497436523438	1058.22705078125	-298.3994750976562	-1606.07568359375	1063.958129882812	-418.3036804199219	-1606.83642578125	1131.794677734375	-377.8283081054688	-1367.95556640625	1323.055419921875	-360.4390258789062	-1619.18115234375	1259.732177734375	-373.6900634765625	-1561.429809570312	1522.108642578125	-376.1788024902344	-1394.011840820312	1440.612548828125	-361.4917297363281	-1639.223388671875	1381.25146484375	-310.3102722167969	-1573.801147460938	1484.553833007812	-488.0484619140625	-1480.458374023438	1486.217651367188	-536.1389770507812	-1503.529052734375	1367.905395507812	-616.8822021484375	-1481.99072265625	1158.414184570312	-639.6094970703125	-1560.84326171875	1140.814086914062	-605.7838745117188	-1383.851318359375	941.5654296875	-543.9368896484375	-1388.499755859375	916.4871826171875	-625.576904296875	-1447.353881835938	1053.39306640625	-640.1735229492188	-1362.8251953125	831.3157348632812	-609.1417846679688	-1334.738525390625	844.8491821289062	-547.3176879882812	-1518.055419921875	1484.928833007812	-202.4459686279297	-1542.47900390625	1420.508056640625	-136.6977691650391	-1560.8271484375	1139.110473632812	-96.48448181152344	-1588.726196289062	1132.330444335938	-187.6231231689453	-1423.607421875	922.8873901367188	-133.0708618164062	-1479.315673828125	909.160888671875	-69.74485015869141	-1534.352172851562	1070.340576171875	-82.37423706054688	-1385.572998046875	802.5857543945312	-116.1929473876953	-1439.834838867188	801.7520141601562	-68.24594879150391	-1529.02685546875	1681.688110351562	-341.12841796875	-1308.145874023438	1723.92431640625	-376.2652282714844	-1336.123291015625	1722.419677734375	-280.6476745605469	-1448.482299804688	1689.052856445312	-455.8164978027344	-1499.869140625	997.1525268554688	-552.3495483398438	-1526.672241210938	1012.979553222656	-185.2565002441406	-1425.822509765625	1052.642700195312	-215.6309356689453	-1400.484008789062	1034.354370117188	-496.1103515625	-1479.963134765625	508.4371948242188	-508.0291442871094	-1477.138793945312	652.34765625	-539.8426513671875	-1569.138916015625	39.06685256958008	-499.5785827636719	-1532.823974609375	287.4666137695312	-515.7235717773438	-1355.973388671875	47.03738021850586	-439.0706787109375	-1425.0927734375	41.52642059326172	-397.2735900878906	-1440.453491210938	39.79215240478516	-514.8927001953125	-1631.449829101562	44.90203094482422	-449.263427734375	-1508.423217773438	518.1820068359375	-226.4514923095703	-1477.65625	785.3565063476562	-177.8973541259766	-1595.481201171875	41.3372688293457	-260.8692016601562	-1507.914306640625	402.5242919921875	-244.50390625	-1380.205444335938	47.97732925415039	-282.2027587890625	-1432.385620117188	42.01187896728516	-331.6233520507812	-1486.876220703125	43.1363525390625	-224.9831390380859	-1652.083251953125	37.06067657470703	-325.3265075683594	-1350.599853515625	749.8014526367188	-530.1801147460938	-1422.367431640625	746.4578247070312	-150.6421661376953	nan	nan	nan	
61	0.6	-1614.166015625	1058.188842773438	-297.6326599121094	-1605.874755859375	1063.953125	-417.5480651855469	-1606.537963867188	1132.005249023438	-377.0407409667969	-1367.168701171875	1322.801879882812	-360.2042846679688	-1618.648559570312	1259.973876953125	-372.9005432128906	-1560.246948242188	1522.245971679688	-375.5250854492188	-1392.948120117188	1440.418334960938	-361.1905212402344	-1638.240356445312	1381.59228515625	-309.453125	-1572.91796875	1484.6767578125	-487.3003234863281	-1479.690795898438	1486.18505859375	-535.7283935546875	-1503.95263671875	1367.995361328125	-616.4752807617188	-1484.62109375	1158.523193359375	-639.8613891601562	-1563.138793945312	1141.563842773438	-604.9768676757812	-1387.53515625	940.1939697265625	-546.5740966796875	-1393.587280273438	915.610107421875	-628.2400512695312	-1451.120849609375	1053.177490234375	-641.352294921875	-1368.613647460938	830.0855102539062	-612.556640625	-1339.695556640625	842.8113403320312	-551.0488891601562	-1516.620849609375	1485.010375976562	-201.8529052734375	-1541.086303710938	1420.681884765625	-136.0549163818359	-1560.072387695312	1139.31884765625	-95.78034210205078	-1588.109375	1132.602783203125	-186.8920135498047	-1423.342407226562	922.85595703125	-132.4917297363281	-1479.062133789062	909.1958618164062	-69.08379364013672	-1533.795166015625	1070.517211914062	-81.69026184082031	-1385.50927734375	802.4970703125	-115.6051254272461	-1439.7177734375	801.7109985351562	-67.61878204345703	-1527.512817382812	1681.733032226562	-340.5606384277344	-1306.552612304688	1723.492309570312	-375.8902282714844	-1334.463256835938	1722.015502929688	-280.2315063476562	-1447.085571289062	1688.995971679688	-455.3334045410156	-1499.807006835938	997.1834106445312	-551.7196044921875	-1526.190795898438	1012.947692871094	-184.5650177001953	-1425.270874023438	1052.58154296875	-215.1633148193359	-1400.226806640625	1034.354736328125	-495.656982421875	-1479.589721679688	508.4690856933594	-507.6879577636719	-1476.89892578125	652.4143676757812	-539.44873046875	-1569.138916015625	39.07093811035156	-499.56689453125	-1532.640258789062	287.5103759765625	-515.5108032226562	-1355.970825195312	47.03970718383789	-439.07373046875	-1425.08740234375	41.52951049804688	-397.281005859375	-1440.455078125	39.79494857788086	-514.905517578125	-1631.448120117188	44.93460083007812	-449.2274475097656	-1508.181762695312	518.125244140625	-226.1368103027344	-1477.163208007812	785.1700439453125	-177.5113220214844	-1595.483520507812	41.32593154907227	-260.8653869628906	-1507.779907226562	402.4013977050781	-244.3121032714844	-1380.213134765625	47.98623275756836	-282.2209167480469	-1432.392578125	42.00439453125	-331.6362609863281	-1486.91455078125	43.13232040405273	-224.9979248046875	-1652.100341796875	37.04127883911133	-325.3235778808594	-1356.225708007812	747.9817504882812	-534.2530517578125	-1423.1025390625	746.234130859375	-149.8793640136719	nan	nan	nan	
62	0.61	-1613.859985351562	1058.155395507812	-296.8421630859375	-1605.677856445312	1063.954956054688	-416.760498046875	-1606.242065429688	1132.231079101562	-376.2146606445312	-1366.444091796875	1322.506225585938	-359.9692993164062	-1618.09375	1260.22705078125	-372.064208984375	-1559.0322265625	1522.386474609375	-374.8415222167969	-1391.854614257812	1440.23095703125	-360.8905639648438	-1637.228393554688	1381.943603515625	-308.5485229492188	-1572.026123046875	1484.808349609375	-486.510986328125	-1478.958251953125	1486.152465820312	-535.291748046875	-1504.427856445312	1368.10400390625	-616.0536499023438	-1487.339965820312	1158.68408203125	-640.1502075195312	-1565.490844726562	1142.348266601562	-604.18115234375	-1391.24658203125	938.884765625	-549.31640625	-1398.798828125	914.818359375	-630.9984741210938	-1454.99169921875	1053.02783203125	-642.5877685546875	-1374.538940429688	828.9486694335938	-616.0910034179688	-1344.697265625	840.8682250976562	-554.9197387695312	-1515.126708984375	1485.094848632812	-201.240234375	-1539.633666992188	1420.86083984375	-135.3828125	-1559.259399414062	1139.536499023438	-95.03722381591797	-1587.453979492188	1132.884643554688	-186.1111297607422	-1423.029418945312	922.8530883789062	-131.8952789306641	-1478.72314453125	909.2354125976562	-68.40316009521484	-1533.18701171875	1070.70458984375	-80.9622802734375	-1385.432861328125	802.41259765625	-114.9905853271484	-1439.544067382812	801.6836547851562	-66.95747375488281	-1525.968505859375	1681.772216796875	-339.9894104003906	-1304.942138671875	1723.056030273438	-375.4770202636719	-1332.791381835938	1721.605224609375	-279.78125	-1445.64697265625	1688.932250976562	-454.8217163085938	-1499.749877929688	997.217529296875	-551.0548095703125	-1525.752563476562	1012.925537109375	-183.8521728515625	-1424.7431640625	1052.526245117188	-214.689208984375	-1399.998168945312	1034.350341796875	-495.1499938964844	-1479.185913085938	508.5074462890625	-507.3211059570312	-1476.656982421875	652.4891967773438	-539.0345458984375	-1569.139770507812	39.07368850708008	-499.558837890625	-1532.4013671875	287.5403747558594	-515.271728515625	-1355.973266601562	47.04528427124023	-439.0775756835938	-1425.08349609375	41.53359222412109	-397.2877197265625	-1440.45458984375	39.79681777954102	-514.9154052734375	-1631.447387695312	44.95901870727539	-449.1958923339844	-1507.9921875	518.06689453125	-225.8006744384766	-1476.731689453125	784.9865112304688	-177.0735473632812	-1595.490112304688	41.30163955688477	-260.8504638671875	-1507.682983398438	402.2612915039062	-244.0968017578125	-1380.22119140625	47.99649047851562	-282.2383422851562	-1432.405639648438	42.00119781494141	-331.6481323242188	-1486.941162109375	43.13224029541016	-225.0091705322266	-1652.119506835938	37.01766586303711	-325.3180847167969	-1362.057983398438	746.1598510742188	-538.46728515625	-1423.45263671875	746.1416015625	-149.1353454589844	nan	nan	nan	
